<svg viewBox="0 0 512 512"  xmlns="http://www.w3.org/2000/svg"><path d="m256 163.4c-51.1 0-92.5 41.4-92.5 92.6 0 51.1 41.4 92.6 92.5 92.6s92.3-41.5 92.3-92.6c-.1-51.1-41.2-92.6-92.3-92.6zm185.5 145.8-16.7 40.2 29.7 58.4 3.9 7.7-41.3 41.3-67.7-32-40.2 16.5-20.2 62.4-2.6 8.3h-58.3l-25.2-70.5-40.2-16.5-58.5 29.7-7.7 3.9-41.2-41.2 31.9-67.7-16.6-40.1-62.3-20.5-8.3-2.7v-58.3l70.5-25.3 16.6-40.1-29.7-58.6-3.9-7.7 41.2-41.2 67.8 31.9 40.1-16.6 20.4-62.4 2.6-8.3h58.3l25.3 70.6 40.1 16.6 58.5-29.7 7.8-3.9 41.2 41.2-31.9 67.7 16.5 40.2 62.5 20.4 8.2 2.6v58.3z"/></svg>