<svg  viewBox="0 0 512 512" xmlns="http://www.w3.org/2000/svg">
<path file="#262626" d="m506 476.9-117.6-117.5c77.3-93.3 64.3-231.7-29.1-308.9-39.3-32.7-88.8-50.5-139.9-50.5-121.2 0-219.4 98.2-219.4 219.4 0 121.2 98.2 219.4 219.4 219.4 51.1 0 100.6-17.8 140-50.4l117.5 117.6c8 8 21.1 8 29.1 0 8-8.1 8-21.1 0-29.1zm-217.2-93.2c-21.9 9.3-45.3 14-69.4 14-47.3 0-92.6-18.8-126-52.2-33.5-33.4-52.3-78.7-52.2-126 0-47.3 18.8-92.6 52.2-126 33.4-33.5 78.8-52.3 126-52.2 47.3 0 92.6 18.8 126 52.2 33.5 33.4 52.3 78.8 52.2 126 0 47.3-18.8 92.6-52.2 126-16.2 16.3-35.4 29.3-56.6 38.2z"/></svg>